<?xml version="1.0" encoding="utf-8"?>
<!-- Generator: Adobe Illustrator 24.3.0, SVG Export Plug-In . SVG Version: 6.00 Build 0)  -->
<svg version="1.1" id="圖層_5" xmlns="http://www.w3.org/2000/svg" xmlns:xlink="http://www.w3.org/1999/xlink" x="0px" y="0px"
	 viewBox="0 0 100.5 121.8" style="enable-background:new 0 0 100.5 121.8;" xml:space="preserve">
<style type="text/css">
	.st0{fill:#A3ADCA;stroke:#F4ABAC;stroke-width:4;stroke-miterlimit:10;}
	.st1{fill:#A3ADCA;}
	.st2{fill:none;stroke:#A3ADCA;stroke-width:5;stroke-linecap:round;stroke-miterlimit:10;}
</style>
<path class="st0" d="M30.1,84.9"/>
<circle class="st1" cx="33" cy="48.7" r="4.5"/>
<circle class="st1" cx="68.2" cy="48.7" r="4.5"/>
<path class="st2" d="M65.4,68.9c-16-14-31.6,0-31.6,0"/>
<path class="st0" d="M67.3,84.9"/>
<path class="st1" d="M89.7,25.4c-11.3-9.5-28.7-8-39.4,2.9c-10.8-11-28.2-12.4-39.4-2.9C-3.8,37.7-1.7,57.8,8.8,68.4l34.2,34.8
	c1.9,2,4.6,3.1,7.3,3.1c2.8,0,5.4-1.1,7.3-3.1l34.2-34.8C102.2,57.8,104.3,37.7,89.7,25.4z M85.1,61.9L50.9,96.7
	c-0.5,0.5-0.9,0.5-1.3,0L15.4,61.9c-7.1-7.2-8.6-21,1.4-29.4c7.6-6.4,19.3-5.4,26.6,2l6.8,7l6.8-7c7.4-7.5,19-8.4,26.6-2.1
	C93.6,40.9,92.1,54.7,85.1,61.9L85.1,61.9z"/>
</svg>
