<?xml version="1.0" encoding="utf-8"?>
<!-- Generator: Adobe Illustrator 21.0.0, SVG Export Plug-In . SVG Version: 6.00 Build 0)  -->
<svg version="1.1" id="圖層_5" xmlns="http://www.w3.org/2000/svg" xmlns:xlink="http://www.w3.org/1999/xlink" x="0px" y="0px"
	 viewBox="0 0 100.5 121.8" style="enable-background:new 0 0 100.5 121.8;" xml:space="preserve">
<style type="text/css">
	.st0{fill:#A3ADCA;}
	.st1{fill:#A3ADCA;stroke:#F4ABAC;stroke-width:4;stroke-miterlimit:10;}
	.st2{fill:none;stroke:#A3ADCA;stroke-width:5;stroke-linecap:round;stroke-miterlimit:10;}
</style>
<path class="st0" d="M33.4,47.8v-24c0-8.2,7.3-14.9,16.2-14.9s16.2,6.7,16.2,14.9v24h9.4V25.6C75.3,11.5,63.8,0,49.6,0
	S24,11.5,24,25.6v22.2H33.4z"/>
<g>
	<polygon class="st0" points="96.5,27.6 70,27.6 70,38.6 87,38.6 91,112.6 9.5,112.6 13.5,27.6 4,27.6 0,121.8 100.5,121.8 	"/>
	<rect x="26.8" y="27.6" class="st0" width="25.3" height="11"/>
</g>
<circle class="st0" cx="29.2" cy="63.5" r="5.2"/>
<circle class="st0" cx="70.1" cy="63.5" r="5.2"/>
<path class="st1" d="M26.8,93.3"/>
<path class="st2" d="M70.1,93.3c-21.9-16.3-43.3,0-43.3,0"/>
<path class="st1" d="M70.1,93.3"/>
</svg>
