<?xml version="1.0" encoding="utf-8"?>
<!-- Generator: Adobe Illustrator 21.0.0, SVG Export Plug-In . SVG Version: 6.00 Build 0)  -->
<svg version="1.1" id="圖層_1" xmlns="http://www.w3.org/2000/svg" xmlns:xlink="http://www.w3.org/1999/xlink" x="0px" y="0px"
	 viewBox="0 0 195.6 45" style="enable-background:new 0 0 195.6 45;" xml:space="preserve">
<style type="text/css">
	.st0{fill:#AAB8D1;}
	.st1{fill:#C4910F;}
</style>
<g>
	<path class="st0" d="M84.3,44.6c-12.1,0-21.9-9.8-21.9-21.9S72.2,0.8,84.3,0.8s21.9,9.8,21.9,21.9S96.4,44.6,84.3,44.6z M84.3,4.1
		c-10.3,0-18.6,8.3-18.6,18.6S74,41.3,84.3,41.3s18.6-8.3,18.6-18.6S94.5,4.1,84.3,4.1z"/>
</g>
<path class="st1" d="M90.8,31c0.3,0,0.6-0.1,0.8-0.4c0.4-0.5,0.3-1.1-0.2-1.5l-7-5.7V13c0-0.6-0.5-1.1-1.1-1.1s-1.1,0.5-1.1,1.1
	v11.4l7.8,6.4C90.3,30.9,90.6,31,90.8,31z"/>
<path class="st0" d="M6.8,20.6c0,0.7-0.1,1.3-0.1,1.9s0,1.2,0.1,1.9c0.1,1.3,0.5,2.3,1.4,3.1c0.9,0.8,2.2,1.2,3.9,1.2
	c0.9,0,1.7-0.1,2.3-0.3c0.6-0.2,1.1-0.4,1.6-0.7c0.4-0.3,0.7-0.6,0.9-1c0.2-0.4,0.4-0.8,0.5-1.1c0-0.2,0.1-0.3,0.3-0.4
	c0.2-0.1,0.3-0.1,0.5-0.1h1.3c0.2,0,0.3,0,0.4,0.1s0.2,0.2,0.2,0.4c0,0.5-0.2,1.1-0.5,1.6c-0.3,0.6-0.8,1.2-1.4,1.7s-1.5,1-2.4,1.3
	c-1,0.4-2.2,0.5-3.6,0.5c-1.2,0-2.3-0.2-3.3-0.5s-1.8-0.7-2.5-1.3c-0.7-0.5-1.2-1.2-1.6-2s-0.6-1.6-0.6-2.5c-0.1-1.4-0.1-2.7,0-4.1
	c0-0.9,0.2-1.7,0.6-2.5s0.9-1.4,1.6-2c0.7-0.5,1.5-1,2.5-1.3S11,14,12.2,14c1.4,0,2.6,0.2,3.6,0.5c1,0.4,1.8,0.8,2.4,1.3
	s1.1,1.1,1.4,1.7s0.5,1.1,0.5,1.6c0,0.1-0.1,0.3-0.2,0.4s-0.3,0.1-0.4,0.1h-1.3c-0.2,0-0.3,0-0.5-0.1s-0.2-0.2-0.3-0.4
	c-0.1-0.4-0.3-0.8-0.5-1.1c-0.2-0.4-0.5-0.7-0.9-1s-0.9-0.5-1.6-0.7C13.8,16.1,13,16,12.1,16c-1.7,0-3,0.4-3.9,1.2
	C7.3,18.3,6.9,19.3,6.8,20.6z"/>
<path class="st0" d="M50.9,28.4c0.2,0,0.4,0.1,0.5,0.2c0.2,0.1,0.2,0.3,0.2,0.4v0.8c0,0.2-0.1,0.3-0.2,0.4c-0.2,0.1-0.3,0.2-0.5,0.2
	H39.4c-0.2,0-0.4-0.1-0.5-0.2c-0.2-0.1-0.2-0.3-0.2-0.4V15.1c0-0.2,0.1-0.3,0.2-0.4c0.2-0.1,0.3-0.2,0.5-0.2h1.2
	c0.2,0,0.4,0.1,0.5,0.2c0.2,0.1,0.2,0.3,0.2,0.4v13.3C41.3,28.4,50.9,28.4,50.9,28.4z"/>
<path class="st0" d="M122,20.6c0,0.7-0.1,1.3-0.1,1.9s0,1.2,0.1,1.9c0.1,1.3,0.5,2.3,1.4,3.1c0.9,0.8,2.2,1.2,3.9,1.2
	c0.9,0,1.7-0.1,2.3-0.3c0.6-0.2,1.1-0.4,1.6-0.7c0.4-0.3,0.7-0.6,0.9-1s0.4-0.8,0.5-1.1c0-0.2,0.1-0.3,0.3-0.4s0.3-0.1,0.5-0.1h1.3
	c0.2,0,0.3,0,0.4,0.1c0.1,0.1,0.2,0.2,0.2,0.4c0,0.5-0.2,1.1-0.5,1.6c-0.3,0.6-0.8,1.2-1.4,1.7c-0.6,0.5-1.5,1-2.4,1.3
	c-1,0.4-2.2,0.5-3.6,0.5c-1.2,0-2.3-0.2-3.3-0.5s-1.8-0.7-2.5-1.3c-0.7-0.5-1.2-1.2-1.6-2s-0.6-1.6-0.6-2.5c-0.1-1.4-0.1-2.7,0-4.1
	c0-0.9,0.2-1.7,0.6-2.5s0.9-1.4,1.6-2c0.7-0.5,1.5-1,2.5-1.3s2.1-0.5,3.3-0.5c1.4,0,2.6,0.2,3.6,0.5c1,0.4,1.8,0.8,2.4,1.3
	c0.6,0.5,1.1,1.1,1.4,1.7c0.3,0.6,0.5,1.1,0.5,1.6c0,0.1-0.1,0.3-0.2,0.4s-0.3,0.1-0.4,0.1h-1.3c-0.2,0-0.3,0-0.5-0.1
	s-0.2-0.2-0.3-0.4c-0.1-0.4-0.3-0.8-0.5-1.1c-0.2-0.4-0.5-0.7-0.9-1s-0.9-0.5-1.6-0.7c-0.6-0.2-1.4-0.3-2.3-0.3
	c-1.7,0-3,0.4-3.9,1.2C122.5,18.3,122,19.3,122,20.6z"/>
<path class="st0" d="M156.7,22.2l9.7,7.4c0.1,0.1,0.2,0.2,0.2,0.2c0,0.1,0.1,0.1,0.1,0.2s-0.1,0.3-0.2,0.4c-0.1,0.1-0.3,0.1-0.4,0.1
	h-1.8c-0.3,0-0.5,0-0.7-0.1s-0.3-0.2-0.4-0.2l-8.1-6.2v5.9c0,0.2-0.1,0.3-0.2,0.4c-0.2,0.1-0.3,0.2-0.5,0.2h-1.2
	c-0.2,0-0.4-0.1-0.5-0.2c-0.2-0.1-0.2-0.3-0.2-0.4V15.1c0-0.2,0.1-0.3,0.2-0.4c0.2-0.1,0.3-0.2,0.5-0.2h1.2c0.2,0,0.4,0.1,0.5,0.2
	c0.2,0.1,0.2,0.3,0.2,0.4v5.3l7.6-5.6c0.1-0.1,0.2-0.1,0.4-0.2c0.2-0.1,0.4-0.1,0.7-0.1h1.7c0.2,0,0.3,0,0.4,0.1
	c0.1,0.1,0.2,0.2,0.2,0.4c0,0,0,0.1-0.1,0.2c0,0.1-0.1,0.1-0.2,0.2L156.7,22.2z"/>
<path class="st0" d="M183.8,14.3c1.2,0,2.2,0.1,3.1,0.4c0.9,0.3,1.6,0.6,2.2,1.1c0.6,0.4,1.1,0.9,1.4,1.3c0.3,0.5,0.5,0.9,0.5,1.3
	c0,0.1,0,0.3-0.2,0.4c-0.1,0.1-0.3,0.1-0.5,0.1h-1.2c-0.2,0-0.4,0-0.5-0.1s-0.3-0.2-0.4-0.4c-0.1-0.2-0.3-0.3-0.5-0.6
	c-0.2-0.2-0.5-0.5-0.9-0.7s-0.8-0.4-1.4-0.6c-0.5-0.2-1.1-0.2-1.9-0.2c-0.5,0-1,0-1.5,0.1s-0.9,0.2-1.3,0.4
	c-0.4,0.2-0.7,0.4-0.9,0.7c-0.2,0.3-0.3,0.6-0.3,1s0.1,0.7,0.3,1s0.6,0.5,1.1,0.7s1.1,0.4,1.8,0.6s1.6,0.4,2.7,0.6
	c1.1,0.2,2,0.5,2.7,0.8s1.4,0.6,1.8,0.9c0.5,0.3,0.8,0.7,1,1.2c0.2,0.4,0.3,1,0.3,1.5c0,0.7-0.2,1.3-0.6,1.9
	c-0.4,0.6-0.9,1.1-1.6,1.5c-0.7,0.4-1.5,0.7-2.4,1c-0.9,0.2-2,0.3-3.1,0.3s-2.1-0.1-3-0.4s-1.7-0.6-2.4-1s-1.2-0.9-1.6-1.4
	c-0.4-0.5-0.6-1-0.6-1.5c0-0.1,0.1-0.3,0.2-0.4c0.1-0.1,0.3-0.1,0.4-0.1h1.2c0.2,0,0.4,0,0.5,0.1s0.3,0.2,0.4,0.4
	c0.1,0.2,0.3,0.4,0.5,0.7c0.2,0.3,0.6,0.5,1,0.7s0.9,0.4,1.5,0.6s1.2,0.2,2,0.2c0.7,0,1.3-0.1,1.9-0.2c0.6-0.1,1.1-0.3,1.6-0.5
	s0.8-0.5,1.1-0.8s0.4-0.7,0.4-1.1s-0.2-0.7-0.5-1s-0.7-0.5-1.3-0.8c-0.6-0.2-1.3-0.4-2.1-0.6s-1.8-0.4-2.8-0.6
	c-0.9-0.2-1.8-0.4-2.4-0.7c-0.7-0.3-1.2-0.6-1.6-1c-0.4-0.4-0.7-0.8-0.9-1.2c-0.2-0.4-0.3-0.9-0.3-1.4c0-0.6,0.1-1.1,0.4-1.6
	c0.3-0.5,0.7-1,1.3-1.4s1.3-0.7,2.1-1C181.7,14.4,182.6,14.3,183.8,14.3z"/>
</svg>
