<?xml version="1.0" encoding="utf-8"?>
<!-- Generator: Adobe Illustrator 21.0.0, SVG Export Plug-In . SVG Version: 6.00 Build 0)  -->
<svg version="1.1" id="Layer_1" xmlns="http://www.w3.org/2000/svg" xmlns:xlink="http://www.w3.org/1999/xlink" x="0px" y="0px"
	 viewBox="0 0 1612.8 687.1" style="enable-background:new 0 0 1612.8 687.1;" xml:space="preserve">
<style type="text/css">
	.st0{fill:#C4922C;}
	.st1{fill:#D19F45;}
	.st2{fill:#DFB05F;}
</style>
<g>
	<path class="st0" d="M167.5,40.5c2.5-1.2,4.5-4.4,4.5-7c0-2.5-1.9-5.5-4.3-6.8c-5.1-3.4-10.9-3.7-14.8-3.7l-0.5,0
		c-18.6,3.1-38,3.7-56.7,4.4c-29.2,1-59.5,2.1-88.2,12.2l-0.4,0.2C4.3,41.1,0,43.2,0,48.6C0,55,5.5,56.4,8.2,57l0.3,0.1
		c5.9,1.5,11.5,0.8,17.1,0.1l25-3.8l0.7,73.4c2.6,83.9,5.2,170.6,10.5,257.1c0.7,14.4,3,27.7,6.7,39.5c3.6,11.6,10,16.7,22.2,17.5
		c3.6,0,7.1-0.7,10.5-1.4l0.2-0.1c8.9-2.4,12.9-7.1,13.6-16.1l0-6.2l-1.3-10.8c-3.1-66.4-4.9-134-6.6-199.3
		c-1.1-43.6-2.3-88.7-3.9-133.2c-0.6-7.8-1.3-15.9-2.7-23.9l7.8,0l0.3,0c2.6-0.2,5.2-0.4,7.8-0.5c5.3-0.3,10.7-0.6,16.3-1.5
		c8.2-1.9,16.7-3.9,25.6-4.5C161.7,43.4,164.6,41.9,167.5,40.5z"/>
	<path class="st0" d="M341.8,397.5c-12-60.5-12.6-123.2-13.1-183.7c-0.4-44.8-0.8-91.1-5.8-136.5c0-4.2-0.7-8.5-2.1-12.7
		c-0.8-2.3-2.3-4.8-4.1-6.6l-0.3-0.2c-4.5-3.6-9-4-11.9-4c-3,0-5.9,0.7-8.7,1.4l-0.4,0.1c-7.8,2.9-8.9,10.6-9.4,14.4
		c-0.7,3.3-1.4,6.8-1.3,10.2l-2.6,41.4c-0.7,21.7-0.7,43.7-0.7,65v7.9c0,1.1-0.4,1.8-1.1,2.1l-5.1,1.9c-11.4,2.8-23.3,4.7-34.8,6.5
		c-14.1,2.2-28.8,4.5-42.7,8.7c-0.1-1.1-0.1-2.6-0.1-4.2l-2-74.7v-7.9c0-5.7-3.1-9.8-8.7-11.7c-3.9-1.6-7.7-1.6-11.1-1.6
		c-2.8,0-5.7,0-8.7,0.8c-7,1.7-11.5,6.3-13,13l0,0.3c-9.4,65.8-4.9,132.8-0.5,197.6c0.8,12.5,1.7,24.9,2.4,37.4
		c1.4,12.7,4.3,24.1,8.8,35l0.1,0.2c2.1,4.2,4.6,8.5,9.8,10.2c4.3,1.4,8.6,2.1,12.9,2.1c5.6,0,10.6-0.9,15-2.9
		c5.5-2.2,6.7-6.1,6.7-9v-2l-0.1-0.8c-1.3-5.3-2-10-2.5-14.5c-3.2-45-5.9-91.6-7.9-138.1c0-3.5,0.7-4.8,3.5-6.2
		c9.4-5.4,19-9,28.5-10.8l48.9-9.8h1.5l0,4.4l-0.1,5c-1.3,65.1-2.6,132.3,20,195.8l1.9,4.4c2.9,8,9,12.5,18,13.4l0.3,0l8.1,0
		c11.4-0.8,15.6-5.4,15.6-17.1c0-6.2-1.2-12.4-2.3-18.3C342.5,401.5,342.2,399.5,341.8,397.5z"/>
	<path class="st0" d="M474.3,78.7l-4.7-13.4c-0.9-3.3-4-6-9.2-8l-0.4-0.1c-2.2-0.6-4.6-0.4-6.9-0.2c-1,0.1-2,0.1-3,0.1
		c-15.8-1.4-18.4,12.2-20.1,21.1l-0.3,1.8c-19.1,65.5-33.3,131.8-48.5,205.2c-3.2,11.7-6.8,23.5-10.3,34.9c-2.9,9.6-5.9,19.5-8.6,29
		c-10,21.9-1.4,28.3,1.4,29.7c8.5,4.2,21.2-3.5,28.3-17c1.8-3.2,2.8-6.6,3.7-9.9c0.5-1.9,1.1-3.8,1.8-5.7l0.2-0.6V345
		c0-1.6,0-2.1,2.9-2.5c7.1-0.7,14.1-2.2,19.2-3.3l5.3-0.9c14.1-2.3,28.6-4.8,42.2-7.7c0.2-0.1,0.4-0.1,0.5-0.1
		c0.2,0.2,0.5,0.5,0.7,0.9l1.8,9.7l0.2,0.7c4,8.9,6.2,19.5,8.3,29.7c3.4,16.4,6.9,33.3,17.9,44.7l0.6,0.7l5.5,1.6
		c2.3,0.7,4.4,0.9,6.5,0.9c2.5,0,4.9-0.3,7.4-0.7l0.9-0.1c5.8-1.3,11.2-3.7,11.2-12.5v-3.9l-3.3-31.9
		C515.1,283.9,498.8,191.3,474.3,78.7z M453.4,313.6c-2.3,0.5-4.7,1-7.2,1.2c-5.8,1-11.5,2-17,3.1c-9.4,1.8-18.3,3.4-27.8,4.7
		c15-47.4,25.7-97.6,31.6-149.4c0.5-1.9,0.9-3.7,1.4-5.6c0.3,2.5,0.6,5,1.2,7.6L463,309.3v1.6l0.1,0.8c0,0.2,0.1,0.3,0.1,0.4
		C460,312.2,456.6,312.9,453.4,313.6z"/>
	<path class="st0" d="M748.1,55.2c-5.6-2.1-11.3-2.3-17.6-0.7l-0.4,0.1c-4.6,1.9-7.2,5-8,9.7l-4,19.1c-8.1,44.3-11,90.1-13.8,134.3
		c-1.3,20.8-2.7,42.4-4.6,63.4l-1.1,14.2c-12.7-37.4-26.5-74.7-42.2-113.6c-4.8-11.9-9.9-24-14.9-35.6
		c-7.8-18.5-15.9-37.5-23.2-56.9c-4.4-10.5-17.7-42.4-43.6-32.1c-8.4,2.4-12.7,8.1-13.4,18l0,2.1l-4.6,45.7l0,0.1
		c-5.3,90.2-3.6,165.2,5.3,236.1c2.6,19.1,6,38.4,9.2,57.2l0.1,0.2c0.7,2.9,1.5,5.8,3.2,8.4c5.8,8.1,14.9,12.7,24.5,12.7
		c2.4,0,4.9-0.3,7.3-0.9l0.8-0.3c15-8.1,11.7-24.2,9.1-37.1c-0.6-2.9-1.1-5.7-1.5-8.4c-9.5-60.7-13.8-127.1-13.1-202.8
		c0-16.3,0.7-33,1.3-49.2c0-0.8,0.1-1.6,0.2-2.4c0.1,0.6,0.3,1.1,0.6,1.7c3.8,9,7.8,18.2,11.1,27.4l5.9,15.1
		c13.1,32.1,24.6,65.5,35.7,97.9c12.2,35.6,24.9,72.3,39.7,107.4l0.2,0.4l0.3,0.4c3.4,4.2,8.3,6.5,13.8,6.5c2.8,0,6.3,0,9.3-0.8
		c6.7-1.7,9.8-5.6,9.8-12.5l0-10.4l0.4-13.1c2.4-88.1,5-179.2,19.9-267l4.6-22.8C755.8,61.2,755.2,57.3,748.1,55.2z"/>
	<path class="st0" d="M953.2,371.3c-3-0.8-5.9-0.8-8.7-0.8c-5.7,0-11.1,2-15.8,5.9c-0.6,0.4-1.2,0.8-1.7,1.2
		c-0.2-0.3-0.5-0.8-0.8-1.2c-12.9-17-22.9-35-29.7-53.5c-2-5.9-3.9-12.2-5.7-18.2c-6.4-21.7-13-44.1-29.9-60.5l-0.3-0.3
		c-1.2-0.9-2.7-1.5-3.9-1.9c-0.5-0.2-1.4-0.5-1.9-0.8c0.5-0.7,1.9-1.8,2.8-2.5c1-0.8,2-1.6,3-2.5l7.1-4.5
		c19.2-13.8,35.5-33.4,48.3-58.3c14.8-29.6,24-60.4,27.2-91.5c2.1-12.1,1.2-23.5,0-32.8c-0.9-13.1-9.4-15-18.5-15
		c-2.4,0-4.7,0.7-6.7,1.4c-5.7,1-9.5,4.4-10.3,9.1c-1.3,5.3-2,10.7-2.6,15.9c-1.5,6.8-3,13.7-4.5,20.7
		c-11.5,54.1-23.4,110-66.4,145.1c-1.9,1.4-3.6,3.1-5.3,4.6c-1.9,1.8-3.7,3.5-5.6,4.8c-3.9-35.9-0.5-70.9,2.8-104.7
		c1.8-18.7,3.7-37.9,4.3-57.5c0-1.8,0.2-3.5,0.3-5.3c0.2-1.7,0.3-3.5,0.3-5.5c0.7-2.9,0.7-5.6,0.7-8.3c0-6.6-3.4-9.4-8.6-11.6
		l-1.8-0.5c-2.1-0.6-4.2-1.1-6.8-1.1c-12.3,0-20.4,5.1-24.1,15.2c-2.1,4.3-2.8,9-3.5,14.6c-18,109.8-18.2,224.1-0.7,339.5l5.3,18.2
		l0.1,0.3c1.7,4.1,5,7.4,9.1,9.1l0.4,0.1c3,0.8,7.1,1.5,11.7,1.5c2.6,0,5.4-0.2,8.3-0.8c4.4-1.1,7.1-4.6,7.1-9.2l0-3.8
		c0.7-18.3-1.3-36.7-3.3-54.6c-1.9-17.6-3.9-35.8-3.3-53.6l0-0.2l-2.6-48.5c0-1.5,0.2-3,0.3-4.6c0.1-1.4,0.3-2.9,0.3-4.5
		c0.2,0,0.3,0,0.6,0l0.7-0.1c3.5-0.7,4.6,1,5.1,1.8c0.5,0.8,1.1,1.6,1.8,2.4c1,1.2,1.9,2.5,2.6,3.7c5,10.9,9.3,22.3,13.8,34.3
		c14,36.8,28.4,74.9,61.5,96.3l0.5,0.3l0.5,0.1c13.9,3.5,27.2,2.1,39.7-4.2c4.4-2.2,7.3-5.1,10.1-7.8c4-4,4.1-7.4,3.5-9.6
		C959.8,375.5,958.2,372.5,953.2,371.3z"/>
	<path class="st0" d="M1234.2,117.7c-2.7-17.8-5.4-36.3-14-51.7l-0.2-0.3c-7.2-10.5-18.9-12.6-34.3-12.6c-10.6,0-12.8,4.4-16.8,12.4
		l-0.2,0.4c-0.3,1.1-2.1,6.4-2.1,10.6c-5.5,37.5-18,75.5-38.3,116.1l-0.2,0.4c-4.5,13.6-13.8,26.6-22.3,37.5c-1.4,1.4-2.6,2.7-3.7,4
		c-3,3.4-5.6,6.2-9.4,7.8c-12-33.8-9.9-70.7-7.9-106.4c0.5-9.7,1.1-19.8,1.4-29.7l0-0.4l-0.1-0.4c-0.7-3.5-0.3-7.4,0-11.6
		c0.6-7.4,1.3-15.8-4-22.6l-0.7-0.8l-8.1-2.4h-4.4c-5.7,0-12.1,0-13.2,9.3c-12.8,50.8-24.7,116.4-3.1,174.3l0.2,0.5l0.3,0.4
		c5,6.7,10,11,15.8,13.5l0.6,0.2c11.5,2.7,28.2,5.6,39.7-0.9c11.6-5.8,20-14.6,26.7-22.6c21.8-28.3,35-63.9,43.1-88.2l5-14.6
		l1.5,25.4c1.8,73.1,0.6,157.3-37.6,231.7l-1.8,3l-12.7,16.5l-1.6,1.2c-28.2,4.4-38.7-33.2-40.6-40.9l-0.3-0.7
		c-3.2-6.5-10.7-11.4-18.9-8.4c-5.1,0.6-8.4,2.2-10.1,4.7c-0.9,1.3-1.8,3.6-0.9,6.7l0.2,0.6c0.9,1.9,1.5,4.3,2,6.5l0.2,1
		c0.9,33.4,36.7,53.8,70.1,56.1c1,0,1.9,0.1,2.9,0.1c12.1,0,24.8-4,35.2-11.1c8.8-5.1,14.2-12.4,19.5-19.5l1.8-2.4l0.2-0.3
		c23.1-40.4,37.4-85.6,43.5-138.2c4.9-42.1,4.6-89.4-1.2-144.7C1235.2,124.2,1234.7,121,1234.2,117.7z"/>
	<path class="st0" d="M1405.4,101.1c-11-27.9-31.4-42.5-55.9-40.2l-11.6,0.6h-3.3c-0.4,0-0.5,0-1.1-0.3l-0.8-0.4l-0.9,0
		c-13.9,0.7-23.8,5.4-30,14.4c-13.4,15.5-31.4,61.1-34.8,96.7c-5.7,42.7-7,83.3-4,120.7c2.6,38.4,8.5,81.5,44,106.8l0.2,0.1
		c9,5.6,19.3,8.4,30.6,8.4c1.6,0,3.1-0.4,4.6-0.7c1.4-0.3,2.6-0.6,4-0.6l0.3,0c7.3-0.7,13.9-3.2,20.1-7.9l0.5-0.5
		c14-16.4,24-35.6,31.5-60.3c10.4-35.5,16.4-75.5,17.8-119c0-6.4,0-12.3,0.1-17.7c0.2-38.7,0.3-56.4-11.3-99.9L1405.4,101.1z
		 M1377.9,252.3c-0.7,6.9-1.3,13.9-1.9,20.8c-5.4,41.5-16.2,73.1-34.1,99.4l-2.5,3c-7.2-9.4-12.2-20-14.4-30.5l-1.3-4.1
		c-9.6-46.8-12.8-90.2-9.7-132.7v0c1.1-16.2,5.8-47.3,12.2-73.1c11.2-44.8,21.3-51.2,25.2-52c4.8-0.9,10.7,5.5,16.4,17.9
		C1387.6,151.7,1382.9,200.6,1377.9,252.3z"/>
	<path class="st0" d="M1599.9,93.1l-0.3,0c-2,0-4.3,0-6.6,0.7c-9.1,1.3-10.5,6.3-10.5,9.2l0,11c-1,18-1.5,36.6-2,54.6
		c-1.8,64-3.6,130.2-27.8,189.3c-4.1,6.4-9.6,12.7-16.4,18.8c-1.9,1.9-3,2.9-4.8,2.9c-2,0-3-0.6-4-2.4l-5.2-24.5l0,0
		c-9.6-44.6-9.1-90.8-8.7-135.6c0.3-28.5,0.6-57.9-1.7-86.7c0.4-6.1,0.3-11.6,0.1-17.3c-0.1-2.9-0.1-5.8-0.1-8.9
		c0-4.8-4.2-9.4-10.2-11.1l-1.5-0.5c-3.4-1.2-6.7-2.3-10.6-2.3c-15.5-1.6-22.4,6.3-25.6,13.1l-0.2,0.4c-7.9,26.8-12,50.1-12.6,70.9
		c-3.9,54.6-5.3,112.6,10,167.2c2,6.6,4,13.4,7.6,19.8c1.3,2.1,2.6,4.3,3.9,6.5c7.6,13.1,16.2,27.9,33.4,29.8l4,0
		c4.7,0.9,9.4,1.4,14.2,1.4c10.6,0,21.4-2.3,32.3-7c4.2-2.1,6.9-4.3,8.4-6.8c6.8-6.2,12.7-13.6,16.7-20.8l0.1-0.2
		c25.8-57.5,27.2-121.7,28.6-183.7c0.3-14.2,0.6-28.9,1.2-43.1c0.7-10.3,1.3-21.3,1.3-32.4C1612.8,97.5,1609.1,93.9,1599.9,93.1z"/>
</g>
<g>
	<path class="st1" d="M237.1,478.5l-0.3-0.2l-0.6-0.2c-0.2-0.1-0.5-0.2-0.9-0.4c-0.8-0.4-1.8-0.9-3-0.9c0,0,0,0,0,0
		c-1.1-0.1-2.3-0.2-3.4-0.4l-0.2,0c-2.7-0.4-5.5-0.8-8.6-0.5c-8.4,0.8-12.5,2.4-19.4,5c-1.2,0.5-2.5,0.9-4,1.5
		c-0.7,0.3-1.4,0.6-2.1,0.9l-0.1,0.1c-3.7,1.5-6.9,2.9-11.1,2.7c-1.2-0.3-2.4-0.1-3.5,0.4c-1.6,0.9-2.9,2.6-3.6,4.8
		c-0.1,0.2-0.2,0.4-0.3,0.6l-0.1,0.1c-0.5,1-1,2.3-1.1,3.7c-0.6,5.4-1,10.9-1,16.3c0,10.1,0.1,20.4,0.2,30.3
		c0.1,9.4,0.2,19.1,0.2,28.5c0.6,14.2,1.6,28,2.9,42.2c0.9,6.5,1.6,12.9,2.3,19.2l0,0.2c0.9,7.6,1.7,14.8,2.7,21.9l1.3,10.1l0.1,0.4
		c1.7,5.6,3.8,8.9,10.1,8.9h2.5c7.1,0,7.1-5.8,7.1-7.7l0-6.5c-1.6-19.6-2.2-39.7-2.8-59.1l0-0.6c0-1.6,0.2-3.2,0.3-4.7
		c0.1-0.6,0.1-1.3,0.2-1.9c0.4-0.1,0.9-0.2,1.4-0.4c1.5-0.4,3.2-0.8,4.8-1.6c5.2-1.3,9-2.6,13-3.9c3.7-1.2,7.5-2.5,12.7-3.9l3.1-1.5
		c1.8-1.1,2.8-3.1,2.4-5c-0.2-1.3-1-2.4-2.1-2.9c-0.7-0.7-1.6-1.3-2.4-1.9l-0.7-0.4h-0.8c-1.5,0-3-0.1-4.7-0.1
		c-1.7-0.1-3.6-0.2-5.4-0.2c0,0,0,0,0,0l-0.3,0c-5,0.6-7.7,1.9-10.3,3.1c-1.9,0.9-3.9,1.9-7.2,2.7c-1.6,0.5-3.3,1-4.2,1.1
		c-0.3-1-0.4-3.4-0.6-5.8c-0.3-16.1-0.9-33.1-1.5-51.1l-0.1-20.4c0-0.2,0-0.5,0-0.7c0,0,0,0,0,0c4.3-1.2,7.1-2.4,9.8-3.5
		c2.8-1.2,5.5-2.3,10.1-3.4c0.7-0.2,1.3-0.4,2-0.6c4-1.3,7.8-2.5,10.9-1.1l0.5,0.2l1,0c3,0,7.2,0,8.6-4.2
		C241.9,484.2,240.4,480.9,237.1,478.5z"/>
	<path class="st1" d="M321.3,506.8c-5.5-13.9-15.7-21.2-27.9-20l-5.5,0.3h-1.5l-0.8-0.3l-0.7,0c-7,0.4-12,2.8-15.2,7.3
		c-6.5,7.6-15.3,29.8-16.9,47c-2.7,20.6-3.4,40.2-1.9,58.2c1.3,18.7,4.1,39.7,21.8,52.2c4.5,2.8,9.6,4.2,15.3,4.2
		c0.9,0,1.8-0.2,2.4-0.4c0.6-0.1,1.1-0.3,1.9-0.3c3.7-0.3,7.1-1.6,10.2-4l0.4-0.4c6.8-8,11.7-17.4,15.4-29.4
		c5-17.2,7.9-36.5,8.6-57.5c0-3.1,0-5.9,0-8.5c0.1-18.7,0.1-27.2-5.5-48.3L321.3,506.8z M306,579.9c-0.3,3.3-0.6,6.6-0.9,9.9
		c-2.6,19.8-7.7,34.8-16.1,47.2l-0.4,0.5c-2.9-4.1-5-8.7-6-13.2l-0.6-2c-4.6-22.4-6.1-43.2-4.7-63.4c0.5-7.7,2.8-22.6,5.9-35
		c5.5-22.1,10.4-24,11.3-24.2c1.7-0.3,4.3,2.7,6.7,7.9C310.7,531.7,308.4,555.1,306,579.9z"/>
	<path class="st1" d="M465.3,641.7c-5.3-2.7-9.7-1.8-13.4,2.6c-1,0.8-1.8,1.7-2.2,2.4c-1.9,1.4-2.9,1.4-5.6,0
		c-2.2-1.1-4.8-3.1-6.4-5l-0.3-0.3c-9.5-8.2-16-19.5-21.1-29.4c-0.8-1.7-1.6-3.3-2.4-5c-4.2-8.8-8.5-17.9-15.3-26.1
		c0-0.1,0.1-0.1,0.1-0.2c1.8-2.5,3.8-5.2,5.6-7.5c2.1-2.8,4.3-5.6,6.1-8.3c11.5-16.7,16.8-32.8,16.2-49.1c0-9.9-1.8-19-5.3-27.1
		c-4.5-8.8-12.8-15.1-23.3-17.6c-11.6-2.8-24-0.5-33.1,6.1c-1,0.5-1.8,0.9-2.8,0.9c-0.9-0.1-1.7,0.1-2.6,0.6
		c-1.1,0.7-2.6,2.1-3.2,3.9c-1.4,1.6-2.1,3.5-2.7,5.3c-2,6.1-3.6,13-5.1,21.6c-8.1,56.5-8.4,104.7-1,147.3c0.4,3.5,1.1,7,1.6,9.3
		c0.8,4.9,4.4,8,10.2,8.8l5,0l0.3-0.1c4.3-0.9,6-3.5,5.5-8.5c-1.6-8.9-2.2-19.2-1.8-31.7c0-9.5,0.8-19.2,1.6-28.5l0.1-0.8
		c0.2-2,0.3-4,0.5-6c0.1-0.2,0.1-0.4,0.2-0.5c0-0.1,0.1-0.2,0.1-0.4l0.2-0.1c1.5-0.6,2.9-1.1,4.2-1.7l0.2-0.1
		c2.2-0.9,4.5-1.8,6.9-2.6l0.4-0.2c0.2-0.1,0.3-0.2,0.5-0.2c0.1,0.1,0.2,0.2,0.3,0.4c3.4,6.4,6.4,12.9,8.8,18.8
		c7.4,16.1,17.8,29.1,30.9,38.4c9.2,8,20,9.6,27.3,10.1c8.1,0,15.1-4.4,18.3-11.5C469.6,647.6,470.2,643.8,465.3,641.7z M399,529.9
		c-1.2,10.4-6.7,24.2-15.3,37.8c-1.1,1.5-2.1,2.3-4.3,2.1c-2.1-0.4-3.8-0.6-5.3-0.7c-0.9-0.1-2.5-0.3-2.9-0.4
		c-0.2-0.8,0-3.9,0.2-6.7l0.1-0.8c0.7-21.8,1.3-38.6,3.5-57.8c0.3-3,0.3-5.9,0.3-8.8c0-3,1.3-5.3,3.8-6.7l7.7-3.4
		c2.3-0.6,4,0,5.5,1.6c1.7,2.2,3.2,5.1,4.6,9C400.2,505.8,400.8,516.2,399,529.9z M372.2,581.1c-0.1,0.2-0.3,0.4-0.6,0.7
		c-0.1,0.1-0.2,0.1-0.3,0.2C371.4,581.2,371.4,581.1,372.2,581.1C372.1,581.1,372.2,581.1,372.2,581.1z"/>
	<path class="st1" d="M588.7,515c-1.3-8.7-2.6-17.6-7-25.4c-3.7-5.4-9.6-6.5-17.3-6.5c-5.8,0-7,2.6-9,6.5l-0.1,0.3
		c-0.2,0.7-1,3.3-1.1,5.3c-2.6,17.9-8.6,36.1-18.3,55.5l-0.1,0.3c-2.1,6.4-6.5,12.5-10.5,17.7c-0.6,0.7-1.2,1.3-1.8,1.9
		c-1.1,1.2-2,2.2-3.1,3c-5.3-15.8-4.3-33-3.4-49.6c0.3-4.7,0.5-9.5,0.7-14.3l0-0.3l0-0.2c-0.3-1.5-0.1-3.4,0-5.3
		c0.3-3.8,0.7-8-2.1-11.6l-0.5-0.7l-4-1.2l-2.7-0.1c-2.7,0-6.7,0-7.4,5.3c-6.2,24.5-11.9,56.3-1.4,84.4l0.3,0.6
		c2.5,3.4,5.1,5.5,8,6.8l0.4,0.1c5.7,1.3,14,2.8,19.8-0.5c5.8-2.9,9.9-7.3,13.2-11.2c10.6-13.7,17-30.9,20.9-42.7l0.7-2l0.4,6.9
		c0.9,35,0.3,75.3-17.9,110.9l-0.8,1.4l-6,7.8l-0.4,0.3c-12.4,1.7-17.2-15.4-18.1-18.9l-0.2-0.5c-1.7-3.5-5.8-6.2-10.2-4.6
		c-2.7,0.4-4.5,1.2-5.5,2.7c-0.5,0.8-1.1,2.2-0.5,4.1l0.2,0.4c0.4,0.8,0.7,1.9,0.9,2.9l0.1,0.3c0.5,16.6,18.2,26.8,34.7,27.9
		c0.5,0,1,0,1.4,0c6,0,12.4-2,17.4-5.4c4.5-2.5,7.1-6.2,9.7-9.7l0.9-1.1l0.2-0.3c12.6-22,28.4-60.1,20.5-136.7
		C589.2,518.2,589,516.6,588.7,515z"/>
	<path class="st1" d="M677.3,506.8c-5.5-13.9-15.7-21.2-27.9-20l-5.5,0.3h-1.5l-0.8-0.3l-0.7,0c-7,0.4-12,2.8-15.2,7.3
		c-6.5,7.6-15.3,29.8-16.9,47c-2.7,20.6-3.4,40.2-1.9,58.2c1.3,18.7,4.1,39.7,21.8,52.2c4.5,2.8,9.7,4.2,15.3,4.2
		c0.9,0,1.8-0.2,2.4-0.4c0.6-0.1,1.1-0.3,1.9-0.3c3.7-0.3,7.1-1.6,10.2-4l0.4-0.4c6.8-8,11.7-17.4,15.4-29.4
		c5-17.2,7.9-36.5,8.6-57.5c0-2.9,0-5.7,0-8.2l0-0.3c0.1-18.7,0.1-27.2-5.5-48.3L677.3,506.8z M662,579.8c-0.3,3.3-0.6,6.7-0.9,10
		c-2.6,19.8-7.7,34.8-16.1,47.2l-0.4,0.5c-2.9-4.1-5-8.7-6-13.2l-0.6-2c-4.6-22.4-6.1-43.2-4.7-63.4c0.5-7.7,2.8-22.6,5.9-35
		c5.5-22.1,10.4-24,11.3-24.2c1.7-0.3,4.3,2.7,6.7,7.9C666.7,531.7,664.4,555.1,662,579.8z"/>
	<path class="st1" d="M776,502.3c-1,0-2.2,0-3.4,0.4c-5.3,0.8-5.9,4.1-5.9,5.5l0,5.2c-0.5,8.6-0.7,17.6-1,26.3
		c-0.8,30.7-1.7,62.3-13.2,90.5c-1.9,3-4.5,5.9-7.7,8.8c-0.9,0.9-1.2,1.1-1.6,1.1c-0.5,0-0.7-0.1-0.9-0.5l-2.4-11.6
		c-4.6-21.3-4.4-43.5-4.2-65c0.1-13.7,0.3-27.8-0.8-41.7c0.2-3,0.1-5.6,0.1-8.4l0-0.1c0-1.3-0.1-2.7-0.1-4.1c0-2.8-2.3-5.4-5.6-6.3
		l-0.7-0.2c-1.6-0.6-3.4-1.1-5.4-1.2c-8-0.8-11.7,3.3-13.3,7l-0.1,0.3c-3.8,13-5.8,24.2-6.1,34.3c-1.9,26.3-2.6,54.4,4.8,80.8
		c1,3.2,2,6.6,3.7,9.8c0.6,1,1.2,2,1.8,3.1c3.6,6.2,8,13.9,16.9,14.8l1.8,0c2.3,0.5,4.6,0.7,7,0.7c5.2,0,10.6-1.2,16-3.5
		c2.2-1.1,3.6-2.2,4.4-3.5c3.4-3.1,6.2-6.7,8.2-10.4c12.5-27.8,13.2-58.8,13.8-88.7c0.1-6.5,0.3-13.8,0.6-20.7
		c0.3-5,0.6-10.3,0.6-15.6C783.4,504.9,781.1,502.7,776,502.3z"/>
	<path class="st1" d="M926,641.7c-5.3-2.7-9.7-1.8-13.4,2.6c-1.1,0.8-1.8,1.7-2.2,2.4c-1.9,1.4-2.9,1.4-5.6,0
		c-2.2-1.1-4.8-3.1-6.4-5l-0.3-0.3c-9.5-8.2-16-19.5-21.1-29.4c-0.8-1.7-1.6-3.3-2.4-5c-4.2-8.8-8.5-17.9-15.3-26.1
		c0-0.1,0.1-0.1,0.1-0.2c1.8-2.5,3.8-5.2,5.6-7.5c2-2.6,4.2-5.6,6.1-8.3c11.5-16.7,16.8-32.8,16.2-49.1c0-9.9-1.8-19-5.3-27.1
		c-4.5-8.8-12.8-15.1-23.3-17.6c-11.6-2.8-24-0.5-33.1,6.1c-1,0.5-1.8,0.9-2.8,0.9c-0.6-0.1-1.5-0.1-2.6,0.6
		c-1.1,0.7-2.6,2.1-3.2,3.9c-1.4,1.6-2.1,3.5-2.7,5.3c-2,6.1-3.6,13-5.1,21.6c-8.1,56.5-8.4,104.7-1,147.3c0.4,3.5,1.1,7,1.6,9.3
		c0.8,4.9,4.4,8,10.2,8.8l5,0l0.3-0.1c4.3-0.9,6-3.5,5.5-8.5c-1.6-8.8-2.2-19.2-1.9-31.7c0-9.5,0.8-19.1,1.6-28.5
		c0.2-2.3,0.4-4.6,0.6-6.8c0.1-0.2,0.1-0.4,0.2-0.5l0-0.1c0-0.1,0.1-0.2,0.1-0.2l0.2-0.1c1.5-0.6,3-1.2,4.5-1.8
		c2.3-0.9,4.5-1.8,6.8-2.6l0.4-0.2c0.2-0.1,0.3-0.2,0.5-0.2c0.1,0.1,0.2,0.2,0.3,0.4c3.4,6.5,6.4,13,8.8,18.8
		c7.4,16.1,17.8,29.1,30.9,38.4c9.2,8,20,9.6,27.3,10.1c8.1,0,15.1-4.4,18.3-11.5C930.3,647.6,930.9,643.8,926,641.7z M859.7,529.9
		c-1.2,10.4-6.7,24.2-15.3,37.8c-1.1,1.5-2.1,2.2-4.3,2.1c-2.1-0.4-3.8-0.6-5.3-0.7c-0.9-0.1-2.5-0.3-2.9-0.4c-0.2-0.8,0-4,0.2-6.7
		l0.1-0.8c0.7-21.8,1.3-38.7,3.5-57.8c0.3-3,0.3-5.9,0.3-8.8c0-3,1.3-5.3,3.8-6.7l7.7-3.4c2.3-0.6,4,0,5.5,1.6
		c1.7,2.2,3.2,5.1,4.6,9C860.9,505.8,861.5,516.2,859.7,529.9z M832.9,581.1c-0.1,0.2-0.3,0.4-0.6,0.7c-0.1,0.1-0.2,0.1-0.3,0.2
		C832.1,581.2,832.1,581.1,832.9,581.1C832.9,581.1,832.9,581.1,832.9,581.1z"/>
	<path class="st1" d="M1025.1,506.8c-5.5-13.9-15.6-21.2-27.9-20l-5.5,0.3h-1.5l-0.8-0.3l-0.7,0c-7,0.4-12,2.8-15.2,7.3
		c-6.5,7.6-15.3,29.8-16.9,47c-2.7,20.6-3.4,40.2-1.9,58.2c1.3,18.7,4.1,39.7,21.8,52.2c4.5,2.8,9.6,4.2,15.3,4.2
		c0.9,0,1.8-0.2,2.4-0.4c0.6-0.1,1.1-0.3,1.9-0.3c3.7-0.3,7.1-1.6,10.2-4l0.4-0.4c6.8-8,11.7-17.4,15.4-29.4
		c5-17.2,7.9-36.5,8.6-57.5c0-3.1,0-5.9,0-8.5c0.1-18.7,0.1-27.2-5.5-48.3L1025.1,506.8z M1009.8,579.8l0,0.1
		c-0.3,3.3-0.6,6.6-0.9,9.8c-2.6,19.8-7.7,34.8-16.1,47.2l-0.4,0.5c-2.9-4.1-5-8.7-6-13.2l-0.6-2c-4.6-22.4-6.1-43.2-4.6-63.4
		c0.5-7.7,2.8-22.6,5.9-35c5.5-22.1,10.4-24,11.3-24.2c1.8-0.3,4.3,2.7,6.7,7.9C1014.5,531.7,1012.2,555.1,1009.8,579.8z"/>
	<path class="st1" d="M1225.8,501.3c-12.7-14.4-28.3-21.7-46.5-21.7c-1.6,0-3-0.1-4.3-0.2c-1.3-0.1-2.7-0.2-4-0.2
		c-9.1-1.1-12.4,1.2-13.9,9.8c-1.2,7.7-2.5,16.7-2.9,24.9c-1.1,24.6-0.6,51,1.6,83.2c0.4,8.2,1.1,15.4,2.2,22
		c0.9,7.2,2.1,14.3,3.3,21.3c-2,0.5-3.9,1.8-5.6,3.8c-1.1,0.8-1.8,1.7-2.2,2.4c-1.9,1.4-3,1.4-5.6,0c-2.2-1.1-4.8-3.1-6.4-5
		l-0.3-0.3c-9.5-8.2-16-19.5-21.1-29.4c-0.8-1.7-1.6-3.3-2.4-5c-4.2-8.8-8.5-17.9-15.3-26.1c0-0.1,0.1-0.1,0.1-0.2
		c1.8-2.5,3.8-5.2,5.6-7.5c2-2.6,4.2-5.6,6.1-8.3c11.5-16.7,16.8-32.8,16.2-49.1c0-9.9-1.8-19-5.3-27.1
		c-4.5-8.8-12.8-15.1-23.3-17.6c-11.6-2.8-24-0.5-33.1,6.1c-1,0.5-1.8,0.9-2.8,0.9c-0.9-0.1-1.7,0.1-2.6,0.6
		c-1.1,0.7-2.6,2.1-3.2,3.9c-1.4,1.6-2.1,3.5-2.7,5.3c-1.9,6.1-3.6,13-5.1,21.6c-8.1,56.5-8.4,104.7-1,147.3c0.4,3.5,1.1,7,1.6,9.3
		c0.8,4.9,4.4,8,10.2,8.8l5,0l0.3-0.1c4.3-0.9,6-3.5,5.5-8.5c-1.6-8.8-2.2-19.2-1.8-31.7c0-9.5,0.8-19.2,1.6-28.5
		c0.2-2.3,0.4-4.5,0.6-6.8l0.2-0.5c0-0.1,0.1-0.2,0.1-0.4l0.2-0.1c1.5-0.6,3-1.2,4.5-1.8c2.3-0.9,4.5-1.8,6.8-2.6l0.4-0.2
		c0.2-0.1,0.3-0.2,0.5-0.2c0.1,0.1,0.2,0.2,0.3,0.4c3.4,6.4,6.4,12.9,8.8,18.8c7.4,16.1,17.8,29.1,30.9,38.4c9.2,8,20,9.6,27.3,10.1
		c3.7,0,7.1-0.9,10.1-2.5c0.2,1.3,0.4,2.6,0.6,3.8c0.3,1.9,0.7,3.7,0.9,5.4l0,0.2c0.5,2.9,1,5.7,1.6,8.4c1.9,7.5,5.7,10.5,13.3,10.5
		h0.3l0.3-0.1c5-1.1,8.2-3.1,7.8-9.7l0-0.7l-0.4-0.6c-0.2-0.3-0.2-0.3-0.2-0.8l0-0.4c0-0.2,0-0.3-0.1-0.4c0.1,0,0.2-0.1,0.3-0.1
		c23.1-9.4,38.6-32,48.3-48.1l0.1-0.3c13.2-29.3,15.8-63.8,6.7-92.4C1240.3,521.3,1234.3,510.8,1225.8,501.3z M1215.5,613.3
		c-2.3,7.6-5.1,13.8-8.8,19.4c-7.1,10.4-13.7,17.8-21.1,23.9c-1-1.5-1.2-3.1-1.2-5.5c-0.6-16.2-1.6-32.9-2.6-49
		c-1.9-33.1-4-67.4-3.1-100.6v-3.8c0-2.4,0.5-2.8,0.5-2.8c0,0,0.2-0.1,0.8-0.1c0.7,0,1.7,0.2,2.9,0.5c4.8,1.2,9.3,3.9,12.6,7.5
		c9,9,15.7,20.2,19.8,33.2C1222.9,562.4,1222.9,589.1,1215.5,613.3z M1102.9,529.9c-1.2,10.4-6.7,24.2-15.3,37.8
		c-1.1,1.5-2.1,2.3-4.3,2.1c-2.1-0.4-3.8-0.6-5.2-0.7c-0.9-0.1-2.5-0.3-2.9-0.4c-0.2-0.8,0-4,0.2-6.7l0.1-0.8
		c0.7-21.8,1.3-38.7,3.5-57.8c0.3-3,0.3-5.9,0.3-8.8c0-3,1.3-5.3,3.8-6.7l7.7-3.4c2.3-0.6,4,0,5.5,1.6c1.7,2.2,3.2,5.1,4.6,9
		C1104,505.8,1104.6,516.2,1102.9,529.9z M1076,581.1c-0.1,0.2-0.3,0.4-0.6,0.7c-0.1,0.1-0.2,0.1-0.3,0.2
		C1075.2,581.2,1075.2,581.1,1076,581.1C1076,581.1,1076,581.1,1076,581.1z"/>
	<path class="st1" d="M1328.5,632.1l-0.4-0.2c-3.9-2-7.6-2-11.5,0l-0.3,0.2l-0.4,0.3c-0.7,0.7-1.8,1.6-3,2.1l-17.2,2.8
		c-1.2,0.1-2.1,0.2-2.6,0.3c-0.1-0.4-0.3-1-0.4-1.5c-2.1-17.2-2.5-33.8-2.5-53.5v-3.7c0.3-1,0.4-1,1.1-1.4c6-1.7,11.9-3.7,17.6-5.6
		l0.5-0.2c1.7-0.6,3.5-1.2,5.3-1.8c2.1-0.8,3.8-2.3,4.6-3.1c1.1-0.6,1.8-1.6,2-2.7c0.3-1.7-0.4-3.6-1.9-5.2l-0.3-0.3l-0.6-0.3
		c-8.8-3.5-17.8-0.5-25.7,2.1c-0.5,0.1-1.1,0.2-1.6,0.3c0-0.5-0.1-1.2-0.1-2.1l0-2.6c1.2-8.8,1.6-17.6,2.1-26.2l0-0.1
		c0.4-7.4,0.8-15.1,1.7-22.6c0.1,0,0.1,0,0.2,0c1.7,0,3.4-0.1,5.2-0.1c1.9-0.1,3.8-0.2,5.9-0.2c2.6,0,4.6,0.4,6.4,1.3l0.2,0.1
		c3,1.1,5.5,1.1,8.2,1.1c1.9,0,5-1.2,5.5-3.6c0.6-1.7,0.3-4.3-1.3-5.7c-1.5-1.9-3.2-3.1-5.3-3.8l-0.4-0.2c-1.8-0.9-3.7-1.9-6.4-1.9
		c0,0,0,0,0,0c-9.2-0.9-19.9-1.7-30.2,0.6c-0.5,0-1.1,0.1-1.6,0.2l-0.2,0c-0.3,0-0.6,0.1-0.8,0.1h-0.5l-0.7,0.3
		c-2.3,1.1-4.5,2.5-5.5,5.8l0,0.2c-10.2,47.3-11.6,93.8-4.1,138.2c0.7,4,2.7,7,6.1,9.1c4.5,2.5,9.6,3.8,14.7,3.8
		c3.3,0,6.6-0.5,9.6-1.6c7.3-1.8,15.2-3.7,23.2-6.1c2.8-0.9,4.7-2.2,5.9-3.8c1.1-0.9,1.7-2.2,1.8-3.8
		C1330.7,635.1,1329.9,633.2,1328.5,632.1z"/>
	<path class="st1" d="M1465.3,641.7c-5.3-2.7-9.7-1.8-13.4,2.6c-1.1,0.8-1.8,1.7-2.2,2.4c-1.9,1.4-3,1.4-5.6,0
		c-2.2-1.1-4.8-3.1-6.4-5l-0.3-0.3c-9.5-8.2-16-19.5-21.1-29.4c-0.8-1.7-1.6-3.3-2.4-5c-4.2-8.8-8.5-17.9-15.3-26.1
		c0-0.1,0.1-0.1,0.1-0.2c1.8-2.5,3.8-5.2,5.6-7.5c2-2.6,4.2-5.6,6.1-8.3c11.5-16.7,16.8-32.8,16.2-49.1c0-9.9-1.8-19-5.3-27.1
		c-4.5-8.8-12.8-15.1-23.3-17.6c-11.6-2.8-24-0.5-33.1,6.1c-1,0.5-1.8,0.9-2.8,0.9c-0.9-0.1-1.7,0.1-2.6,0.6
		c-1.1,0.7-2.6,2.1-3.2,3.9c-1.4,1.6-2.1,3.5-2.7,5.3c-1.9,6.1-3.6,13-5.1,21.6c-8.1,56.5-8.4,104.7-1,147.3c0.4,3.5,1.1,7,1.6,9.3
		c0.8,4.9,4.4,8,10.2,8.8l5,0l0.3-0.1c4.3-0.9,6-3.5,5.5-8.5c-1.6-8.8-2.2-19.2-1.8-31.7c0-9.5,0.8-19.2,1.6-28.5
		c0.2-2.3,0.4-4.5,0.6-6.8c0.1-0.2,0.1-0.4,0.2-0.5c0-0.1,0.1-0.2,0.1-0.4l0.2-0.1c1.5-0.6,3-1.2,4.5-1.8c2.3-0.9,4.5-1.8,6.8-2.6
		l0.4-0.2c0.2-0.1,0.3-0.2,0.5-0.2c0.1,0.1,0.2,0.2,0.3,0.4c3.4,6.5,6.4,12.9,8.8,18.8c7.4,16.1,17.8,29.1,30.9,38.4
		c9.2,8,20,9.6,27.3,10.1c8.1,0,15.1-4.4,18.3-11.5C1469.6,647.6,1470.2,643.8,1465.3,641.7z M1399,529.9
		c-1.2,10.4-6.7,24.2-15.3,37.8c-1.1,1.5-2.1,2.3-4.3,2.1c-2.1-0.4-3.8-0.6-5.3-0.7c-0.9-0.1-2.5-0.3-2.9-0.4
		c-0.2-0.8,0-3.9,0.2-6.7l0.1-0.8c0.7-21.8,1.3-38.6,3.5-57.8c0.3-3,0.3-5.9,0.3-8.8c0-3,1.3-5.3,3.8-6.7l7.7-3.4
		c2.3-0.6,4,0,5.5,1.6c1.7,2.2,3.2,5.1,4.6,9C1400.1,505.8,1400.7,516.2,1399,529.9z M1372.1,581.1c-0.1,0.2-0.3,0.4-0.6,0.7
		c-0.1,0.1-0.2,0.1-0.3,0.2C1371.3,581.2,1371.3,581.1,1372.1,581.1C1372.1,581.1,1372.1,581.1,1372.1,581.1z"/>
</g>
<g>
	<g>
		<path class="st2" d="M1514.8,632.3c-26.9-6.1-35.1-96-30.8-110.4c1.6-6.1,8.4-10.9,15.5-9.9c28.3,5.7,27.3,36.8,28.1,37.5
			c0.8-0.7,11.9-10.6,17.1-16.5c1.4-0.9,2.4-2.2,3.9-3.3c5.8-5.5,12.6-6.7,21-4.5c4.6,1.3,9.3,4.1,9.3,16.6
			C1578.7,581.8,1541.7,638.5,1514.8,632.3z"/>
	</g>
	<g>
		<path class="st2" d="M25.2,547.9c0-12.5,4.7-15.3,9.3-16.6c8.3-2.2,15.2-1,21,4.5c1.5,1.1,2.5,2.4,3.9,3.3
			c5.2,6,16.3,15.9,17.1,16.5c0.7-0.8-0.2-31.8,28.1-37.5c7-1,13.8,3.8,15.5,9.9c4.3,14.4-3.9,104.3-30.8,110.4
			C62.2,644.6,25.2,588,25.2,547.9z"/>
	</g>
</g>
</svg>
