<?xml version="1.0" encoding="utf-8"?>
<!-- Generator: Adobe Illustrator 24.3.0, SVG Export Plug-In . SVG Version: 6.00 Build 0)  -->
<svg version="1.1" id="栝鍣_1" xmlns="http://www.w3.org/2000/svg" xmlns:xlink="http://www.w3.org/1999/xlink" x="0px" y="0px"
	 viewBox="0 0 1615.1 1327.8" style="enable-background:new 0 0 1615.1 1327.8;" xml:space="preserve">
<style type="text/css">
	.st0{fill:#808DAF;}
	.st1{fill:#A6B0CF;}
</style>
<path class="st0" d="M329.6,987.5c0-20.4,8-39.6,22.4-54.1c14.4-14.4,33.6-22.4,54.1-22.4c7.6,0,13.8-6.2,13.8-13.8
	s-6.2-13.8-13.8-13.8c-20.4,0-39.6-8-54.1-22.4c-14.4-14.4-22.4-33.6-22.4-54.1V606c0-76.2,62-138.2,138.2-138.2h701
	c-4.6-5.5-8.3-11.9-10.9-19c-12-33.1,5.1-69.7,38.2-81.7c13.8-5,20.8-20.1,15.8-33.9l-68.7-188.9c-16.6-45.7-67.4-69.4-113-52.8
	L102,428.8c-45.7,16.6-69.4,67.4-52.8,113l68.7,188.9c5,13.8,20.1,20.8,33.9,15.8c33.1-12,69.7,5.1,81.8,38.1
	c12,33.1-5.1,69.7-38.1,81.7c-13.8,5-20.8,20.1-15.8,33.9l68.7,188.9c7.3,20.2,21.4,36.1,38.7,46.1l2.1,6l3.7-1.3v1.2h6.4
	c0.5,0.2,1,0.4,1.5,0.6v-0.6h28.9V987.5z"/>
<g>
	<path class="st1" d="M1535.7,839.2c14.6,0,26.5-11.8,26.5-26.5V611.8c0-48.6-39.6-88.2-88.2-88.2H486.4
		c-48.6,0-88.2,39.6-88.2,88.2v200.9c0,14.6,11.8,26.5,26.5,26.5c35.2,0,63.8,28.6,63.8,63.8c0,35.2-28.6,63.8-63.8,63.8
		c-14.6,0-26.5,11.8-26.5,26.5v200.9c0,48.6,39.6,88.2,88.2,88.2H1474c48.6,0,88.2-39.6,88.2-88.2V993.3c0-14.6-11.8-26.5-26.5-26.5
		c-35.2,0-63.8-28.6-63.8-63.8S1500.5,839.2,1535.7,839.2z M1509.3,1016.7v177.6c0,19.5-15.8,35.3-35.3,35.3H740.5v-27.4h-50.1v27.4
		h-204c-19.5,0-35.3-15.8-35.3-35.3v-177.6c51.6-12,90.3-58.4,90.3-113.7c0-55.2-38.7-101.7-90.3-113.7V611.8
		c0-19.5,15.8-35.3,35.3-35.3h203.9v27.4h50.2v-27.4H1474c19.5,0,35.3,15.8,35.3,35.3v177.6c-51.6,12-90.3,58.4-90.3,113.7
		S1457.6,1004.7,1509.3,1016.7z"/>
</g>
<g>
	<rect x="690.3" y="857.9" class="st1" width="50.1" height="90.3"/>
</g>
<g>
	<rect x="690.3" y="743.2" class="st1" width="50.1" height="90.3"/>
</g>
<g>
	<rect x="690.3" y="628.5" class="st1" width="50.1" height="90.3"/>
</g>
<g>
	<rect x="690.3" y="972.6" class="st1" width="50.1" height="90.3"/>
</g>
<g>
	<rect x="690.3" y="1087.4" class="st1" width="50.1" height="90.3"/>
</g>
<g>
	<path class="st1" d="M962.3,1067.6c-6.7,0-13.4-2.5-18.5-7.6c-5.2-5.2-7.6-11.8-7.6-18.5c0-6.7,2.5-13.4,7.6-18.5l276.5-276.6
		c10.2-10.2,26.8-10.2,37,0c5.2,5.2,7.6,11.8,7.6,18.5c0,6.7-2.5,13.4-7.6,18.5l-276.4,276.5C975.7,1064.9,969,1067.6,962.3,1067.6z
		"/>
	<path class="st1" d="M990.8,907.7c-30.5,0-59.3-11.9-80.9-33.5c-21.7-21.7-33.5-50.4-33.5-80.9s11.9-59.3,33.5-80.9
		c21.7-21.7,50.4-33.5,80.9-33.5c30.5,0,59.3,11.9,80.9,33.5c44.6,44.6,44.6,117.2,0,161.8C1050,895.8,1021.3,907.7,990.8,907.7z
		 M990.8,731.1c-16.6,0-32.2,6.4-43.9,18.1s-18.1,27.3-18.1,43.9s6.4,32.2,18.1,43.9s27.3,18.1,43.9,18.1s32.2-6.4,43.9-18.1
		c24.2-24.2,24.2-63.6,0-87.8C1022.8,737.6,1007.4,731.1,990.8,731.1z"/>
	<path class="st1" d="M1210.4,1127.3c-30.5,0-59.3-11.9-80.9-33.5c-21.7-21.7-33.5-50.4-33.5-80.9s11.9-59.3,33.5-80.9
		c21.7-21.7,50.4-33.5,80.9-33.5s59.3,11.9,80.9,33.5c21.7,21.7,33.5,50.4,33.5,80.9s-11.9,59.3-33.5,80.9
		C1269.6,1115.4,1240.9,1127.3,1210.4,1127.3z M1210.4,950.7c-16.6,0-32.2,6.4-43.9,18.1c-11.7,11.7-18.1,27.3-18.1,43.9
		s6.4,32.2,18.1,43.9c11.7,11.7,27.3,18.1,43.9,18.1c16.6,0,32.2-6.4,43.9-18.1c11.7-11.7,18.1-27.3,18.1-43.9s-6.4-32.2-18.1-43.9
		C1242.5,957.2,1227,950.7,1210.4,950.7z"/>
</g>
</svg>
