<?xml version="1.0" encoding="utf-8"?>
<!-- Generator: Adobe Illustrator 21.0.0, SVG Export Plug-In . SVG Version: 6.00 Build 0)  -->
<svg version="1.1" id="圖層_3" xmlns="http://www.w3.org/2000/svg" xmlns:xlink="http://www.w3.org/1999/xlink" x="0px" y="0px"
	 viewBox="0 0 225 225" style="enable-background:new 0 0 225 225;" xml:space="preserve">
<style type="text/css">
	.st0{fill:#A8B7CF;}
	.st1{fill:#C39010;}
</style>
<g>
	<path class="st0" d="M112.8,225C51.8,225,2.3,175.4,2.3,114.5S51.8,4,112.8,4s110.5,49.6,110.5,110.5S173.7,225,112.8,225z
		 M112.8,20.6c-51.8,0-93.9,42.1-93.9,93.9s42.1,93.9,93.9,93.9s93.9-42.1,93.9-93.9S164.5,20.6,112.8,20.6z"/>
</g>
<path class="st1" d="M145.6,156.4c1.6,0,3.1-0.7,4.2-2c1.9-2.3,1.5-5.7-0.8-7.6l-35.4-28.9V65.5c0-3-2.4-5.4-5.4-5.4
	s-5.4,2.4-5.4,5.4v57.5l39.4,32.1C143.2,156,144.4,156.4,145.6,156.4z"/>
</svg>
